<svg fill="none" height="22" viewBox="0 0 214 22" width="214" xmlns="http://www.w3.org/2000/svg" xmlns:xlink="http://www.w3.org/1999/xlink"><clipPath id="a"><path d="m0 0h214v22h-214z"/></clipPath><mask id="b" height="13" maskUnits="userSpaceOnUse" width="99" x="8" y="5"><path d="m106.53 5.21385h-98.35812v11.83675h98.35812z" fill="#fff"/></mask><g clip-path="url(#a)"><g mask="url(#b)"><g fill="#fff"><path d="m37.1735 9.94856h-7.17v-2.36735h9.0261v-2.36736h-9.0425c-.6282 0-1.2304.2477-1.6743.68856-.4442.4409-.6937 1.03885-.6937 1.66237v2.40021c0 .62351.2495 1.22151.6937 1.66241.4439.4408 1.0461.6885 1.6743.6885h7.1697v2.3674h-9.3671v2.3673h9.3838c.6279 0 1.2301-.2477 1.6743-.6885.4442-.4409.6936-1.0389.6936-1.6624v-2.4002c0-.6235-.2494-1.2215-.6936-1.6624-.4442-.4408-1.0464-.68854-1.6743-.68854z"/><path d="m51.0585 5.21385h-7.1962c-.3108 0-.6189.06082-.9061.17899-.2871.11817-.5481.29135-.7677.50969-.2198.2183-.3939.4775-.5129.76271-.1186.28521-.1798.59088-.1795.89954v7.13492c-.0003.3087.0609.6143.1795.8995.119.2853.2931.5445.5129.7628.2196.2183.4806.3915.7677.5096.2872.1182.5953.179.9061.179h7.1962c.6282 0 1.2305-.2477 1.6744-.6885.4441-.4409.6935-1.0389.6935-1.6624v-7.13492c0-.62352-.2494-1.22147-.6935-1.66237-.4439-.44086-1.0462-.68856-1.6744-.68856zm-.0166 9.46945h-7.1531v-7.10209h7.1531z"/><path d="m76.2438 5.21385h-7.0175c-.6282 0-1.2304.24767-1.6743.68856-.4442.4409-.6936 1.03885-.6936 1.66237v9.48582h2.3843v-3.8897h6.9845v3.8897h2.3846v-9.48582c0-.3088-.0609-.61461-.1798-.89994-.119-.28532-.2934-.54454-.5135-.7629-.2199-.21834-.4808-.39152-.7683-.50958s-.5955-.17873-.9064-.17851zm-.0166 5.57975h-6.9845v-3.21239h6.9845z"/><path d="m104.161 5.21386h-7.0153c-.3115-.00065-.6198.05969-.9078.17752-.2878.11786-.5493.29093-.7697.50929-.2204.21839-.3954.47776-.5146.76331-.1192.28554-.1807.59167-.1807.9008v9.48582h2.3843v-3.8897h6.9878v3.8897h2.384v-9.48582c0-.62351-.249-1.22147-.693-1.66236-.444-.44086-1.046-.68856-1.675-.68856zm-.016 5.57974h-6.9827v-3.21239h6.9827z"/><path d="m90.271 14.6833h-.9537l-3.4177-8.48305c-.117-.29107-.319-.54063-.5803-.71646-.2612-.17584-.5696-.26988-.8852-.26994h-2.1227c-.4186 0-.8199.16507-1.1158.45887-.2959.29384-.4622.69234-.4622 1.10787v10.27001h2.3843v-9.46939h.954l3.416 8.48299c.1164.2911.3182.5407.5791.7166.261.1759.5691.2699.8844.2698h2.123c.4185 0 .8199-.165 1.1158-.4588.2959-.2939.4622-.6924.4622-1.1079v-10.27005h-2.3846z"/><path d="m57.9231 5.21385h-2.3845v9.48585c0 .6235.2494 1.2215.6936 1.6624.4441.4408 1.0464.6885 1.6743.6885h7.17v-2.3673h-7.1534z"/></g><path clip-rule="evenodd" d="m10.6952 14.2394c.0423-.0455.0934-.0821.1503-.1075.057-.0254.1184-.0392.1808-.0405h10.4055c.044.0007.0869.0139.1235.0381.0367.0243.0655.0585.0829.0987.0175.0401.023.0844.0157.1275-.0072.0431-.0269.0832-.0566.1155l-2.2056 2.4315c-.0423.0455-.0935.0821-.1504.1075s-.1183.0392-.1807.0404h-10.41207c-.04402-.0006-.08694-.0138-.12355-.0381-.03664-.0242-.06544-.0585-.08295-.0986-.01747-.0401-.02291-.0844-.01567-.1275.00725-.0431.02692-.0832.0566-.1155zm10.9121-2.0156c.0297.0323.0493.0725.0566.1156.0072.0431.0018.0874-.0157.1275s-.0463.0744-.0829.0986c-.0367.0243-.0796.0375-.1236.0381l-10.4087.0082c-.0624-.0012-.1239-.015-.1808-.0404s-.1081-.062-.1504-.1075l-2.22217-2.4233c-.02968-.0323-.04932-.07239-.05659-.11551-.00724-.04312-.0018-.0874.0157-.1275.0175-.04013.04627-.07438.08291-.09861.03664-.02427.07953-.03749.12355-.03811l10.4088-.00823c.0623.00127.1238.01503.1807.04045s.1081.062.1504.10751zm-10.9121-6.86199c.0423-.04551.0934-.0821.1503-.10752.057-.02542.1184-.03917.1808-.04044l10.4121.00823c.044.00062.0869.01384.1235.0381.0367.02424.0655.05848.083.09862.0175.0401.0229.08438.0157.1275-.0073.04311-.027.08325-.0566.11554l-2.2123 2.42325c-.0423.04551-.0935.08209-.1504.10751-.0569.02543-.1183.03918-.1807.04045h-10.41207c-.04402-.00062-.08694-.01384-.12355-.03811-.03664-.02426-.06544-.0585-.08295-.09861-.01747-.04013-.02291-.08441-.01567-.12753.00725-.04311.02692-.08322.0566-.11552z" fill="#14f195" fill-rule="evenodd"/></g><path d="m123.386 7h-.704c-.042-.20265-.115-.38068-.219-.53409-.102-.15341-.227-.2822-.375-.38636-.146-.10607-.308-.18561-.486-.23864s-.363-.07955-.557-.07955c-.352 0-.671.08902-.957.26705-.284.17803-.51.44034-.679.78693-.167.34659-.25.77178-.25 1.27557s.083.92898.25 1.27557c.169.34659.395.6089.679.78692.286.178.605.2671.957.2671.194 0 .379-.0266.557-.0796s.34-.1316.486-.2358c.148-.10605.273-.23578.375-.38919.104-.1553.177-.33333.219-.53409h.704c-.053.29735-.149.56345-.289.79829-.141.23489-.315.43469-.523.59939-.208.1629-.442.287-.702.3722-.257.0852-.533.1278-.827.1278-.496 0-.937-.1212-1.323-.3636-.387-.2424-.691-.5871-.912-1.03408-.222-.44697-.333-.97727-.333-1.59091s.111-1.14394.333-1.59091c.221-.44697.525-.79167.912-1.03409.386-.24243.827-.36364 1.323-.36364.294 0 .57.04262.827.12784.26.08523.494.21023.702.375.208.16288.382.36175.523.59659.14.23296.236.49906.289.7983zm6.848 1.09091c0 .61364-.111 1.14394-.332 1.59091-.222.44698-.526.79168-.912 1.03408-.387.2424-.828.3636-1.324.3636s-.938-.1212-1.324-.3636-.69-.5871-.912-1.03408c-.222-.44697-.332-.97727-.332-1.59091s.11-1.14394.332-1.59091.526-.79167.912-1.03409c.386-.24243.828-.36364 1.324-.36364s.937.12121 1.324.36364c.386.24242.69.58712.912 1.03409.221.44697.332.97727.332 1.59091zm-.682 0c0-.50379-.084-.92898-.253-1.27557-.166-.34659-.393-.6089-.679-.78693-.284-.17803-.602-.26705-.954-.26705-.353 0-.672.08902-.958.26705-.284.17803-.51.44034-.679.78693-.166.34659-.25.77178-.25 1.27557s.084.92898.25 1.27557c.169.34659.395.6089.679.78692.286.178.605.2671.958.2671.352 0 .67-.0891.954-.2671.286-.17802.513-.44033.679-.78692.169-.34659.253-.77178.253-1.27557zm7.28-2.90909v5.81818h-.682l-3.17-4.56818h-.057v4.56818h-.704v-5.81818h.681l3.182 4.57954h.057v-4.57954zm2.21 5.81818v-5.81818h3.489v.625h-2.784v1.96591h2.522v.625h-2.522v2.60227zm6.2-5.81818v5.81818h-.705v-5.81818zm4.008 5.81818h-1.795v-5.81818h1.875c.564 0 1.047.11648 1.448.34943.402.23106.71.56345.924.99716.214.43182.321.94886.321 1.55114 0 .60606-.108 1.12784-.324 1.56534-.216.43561-.53.77081-.943 1.00571-.413.2329-.915.3494-1.506.3494zm-1.091-.625h1.046c.481 0 .879-.0928 1.196-.2784.316-.18562.552-.44982.707-.79262.155-.34281.233-.75095.233-1.22443 0-.4697-.077-.87406-.23-1.21307-.154-.34091-.383-.60228-.688-.78409-.305-.18372-.684-.27557-1.139-.27557h-1.125zm5.846.625v-5.81818h3.511v.625h-2.807v1.96591h2.625v.625h-2.625v1.97727h2.852v.625zm10.194-5.81818v5.81818h-.681l-3.171-4.56818h-.057v4.56818h-.704v-5.81818h.682l3.181 4.57954h.057v-4.57954zm1.892.625v-.625h4.364v.625h-1.83v5.19318h-.704v-5.19318zm6.956-.625v5.81818h-.705v-5.81818zm2.451 5.81818h-.739l2.137-5.81818h.727l2.136 5.81818h-.738l-1.739-4.89773h-.045zm.273-2.27273h2.977v.625h-2.977zm5.694 2.27273v-5.81818h.705v5.19318h2.705v.625zm-62.76 7v-5.8182h2.034c.405 0 .739.0701 1.002.2102.264.1383.46.3249.589.5597.128.233.193.4915.193.7756 0 .25-.045.4564-.134.6193-.087.1629-.202.2917-.346.3864-.142.0947-.297.1647-.463.2102v.0568c.178.0114.357.0739.536.1875.18.1136.331.2765.452.4886.121.2122.182.4716.182.7784 0 .2917-.066.554-.199.787-.132.2329-.342.4176-.628.554-.286.1363-.658.2045-1.116.2045zm.704-.625h1.398c.46 0 .787-.089.98-.267.195-.18.293-.3978.293-.6535 0-.1969-.051-.3787-.151-.5454-.1-.1686-.243-.303-.429-.4034-.186-.1023-.405-.1534-.659-.1534h-1.432zm0-2.6364h1.307c.212 0 .403-.0416.574-.125.172-.0833.308-.2007.409-.3522.102-.1516.153-.3296.153-.5341 0-.2557-.089-.4726-.267-.6506-.178-.1799-.46-.2699-.846-.2699h-1.33zm5.537 3.2614h-.738l2.136-5.8182h.727l2.137 5.8182h-.739l-1.739-4.8977h-.045zm.273-2.2727h2.977v.625h-2.977zm5.695 2.2727v-5.8182h.704v5.1932h2.705v.625zm5.906 0h-.739l2.136-5.8182h.728l2.136 5.8182h-.739l-1.738-4.8977h-.046zm.272-2.2727h2.978v.625h-2.978zm10.309-3.5455v5.8182h-.682l-3.17-4.5682h-.057v4.5682h-.705v-5.8182h.682l3.182 4.5796h.057v-4.5796zm6.892 1.8182h-.705c-.042-.2027-.115-.3807-.219-.5341-.102-.1534-.227-.2822-.375-.3864-.146-.106-.307-.1856-.485-.2386-.179-.053-.364-.0795-.557-.0795-.353 0-.672.089-.958.267-.284.178-.51.4404-.679.7869-.166.3466-.25.7718-.25 1.2756s.084.929.25 1.2756c.169.3466.395.6089.679.7869.286.178.605.2671.958.2671.193 0 .378-.0266.557-.0796.178-.053.339-.1316.485-.2358.148-.106.273-.2358.375-.3892.104-.1553.177-.3333.219-.5341h.705c-.053.2974-.15.5635-.29.7983-.14.2349-.315.4347-.523.5994-.208.1629-.442.287-.702.3722-.257.0852-.533.1278-.826.1278-.497 0-.938-.1212-1.324-.3636-.387-.2424-.69-.5871-.912-1.0341s-.332-.9773-.332-1.5909.11-1.1439.332-1.5909.525-.7917.912-1.0341c.386-.2424.827-.3636 1.324-.3636.293 0 .569.0426.826.1278.26.0852.494.2102.702.375.208.1629.383.3618.523.5966.14.233.237.4991.29.7983zm1.938 4v-5.8182h3.511v.625h-2.806v1.9659h2.625v.625h-2.625v1.9773h2.852v.625zm8.763-4.3636c-.034-.2879-.172-.5114-.415-.6705-.242-.1591-.539-.2386-.892-.2386-.257 0-.483.0416-.676.125-.191.0833-.341.1979-.449.3437-.106.1459-.159.3116-.159.4972 0 .1553.037.2888.111.4006.076.1098.172.2017.29.2755.117.072.24.1316.369.179.129.0454.247.0824.355.1108l.591.1591c.152.0398.32.0947.506.1648.187.07.366.1657.537.2869.172.1193.314.2727.426.4602s.168.4176.168.6904c0 .3143-.083.5984-.248.8522-.162.2538-.401.4555-.716.6051-.312.1497-.692.2245-1.139.2245-.416 0-.777-.0673-1.082-.2017-.303-.1345-.542-.322-.716-.5625-.172-.2406-.27-.5199-.293-.8381h.728c.019.2197.092.4015.221.5455.131.142.296.2481.495.3181.2.0682.416.1023.647.1023.269 0 .511-.0436.725-.1307.214-.089.383-.2121.508-.3693.125-.1591.188-.3447.188-.5568 0-.1932-.054-.3504-.162-.4716s-.25-.2197-.426-.2955c-.176-.0757-.367-.142-.571-.1988l-.716-.2046c-.455-.1306-.815-.3172-1.08-.5596s-.398-.5597-.398-.9517c0-.3258.089-.6099.265-.8523.178-.2443.416-.4337.716-.5682.301-.1363.637-.2045 1.008-.2045.375 0 .708.0672 1 .2017.292.1326.523.3144.693.5454.173.2311.264.4934.273.787zm7.565 4.3636h-1.795v-5.8182h1.875c.564 0 1.047.1165 1.449.3494.401.2311.709.5635.923.9972.214.4318.321.9489.321 1.5511 0 .6061-.108 1.1279-.324 1.5654-.216.4356-.53.7708-.943 1.0057-.413.2329-.915.3494-1.506.3494zm-1.091-.625h1.046c.481 0 .88-.0928 1.196-.2784s.552-.4498.707-.7926c.156-.3428.233-.751.233-1.2245 0-.4697-.076-.874-.23-1.213-.153-.3409-.382-.6023-.687-.7841-.305-.1837-.685-.2756-1.14-.2756h-1.125zm5.846.625v-5.8182h3.511v.625h-2.807v1.9659h2.625v.625h-2.625v1.9773h2.853v.625zm5.581-5.8182h.841l1.977 4.8296h.069l1.977-4.8296h.841v5.8182h-.659v-4.4205h-.057l-1.818 4.4205h-.637l-1.818-4.4205h-.057v4.4205h-.659zm12.826 2.9091c0 .6136-.11 1.1439-.332 1.5909s-.526.7917-.912 1.0341-.828.3636-1.324.3636-.937-.1212-1.324-.3636c-.386-.2424-.69-.5871-.912-1.0341-.221-.447-.332-.9773-.332-1.5909s.111-1.1439.332-1.5909c.222-.447.526-.7917.912-1.0341.387-.2424.828-.3636 1.324-.3636s.938.1212 1.324.3636.69.5871.912 1.0341.332.9773.332 1.5909zm-.681 0c0-.5038-.085-.929-.253-1.2756-.167-.3465-.393-.6089-.679-.7869-.284-.178-.602-.267-.955-.267-.352 0-.671.089-.957.267-.284.178-.511.4404-.679.7869-.167.3466-.25.7718-.25 1.2756s.083.929.25 1.2756c.168.3466.395.6089.679.7869.286.178.605.2671.957.2671.353 0 .671-.0891.955-.2671.286-.178.512-.4403.679-.7869.168-.3466.253-.7718.253-1.2756z" fill="#b4b4b4"/></g></svg>